<?xml version="1.0" standalone="no"?>
<!DOCTYPE svg PUBLIC "-//W3C//DTD SVG 20010904//EN"
 "http://www.w3.org/TR/2001/REC-SVG-20010904/DTD/svg10.dtd">
<svg version="1.0" xmlns="http://www.w3.org/2000/svg"
 width="1038.000000pt" height="1038.000000pt" viewBox="0 0 1038.000000 1038.000000"
 preserveAspectRatio="xMidYMid meet">
<metadata>
Created by potrace 1.14, written by Peter Selinger 2001-2017
</metadata>
<g transform="translate(0.000000,1038.000000) scale(0.100000,-0.100000)"
fill="#000000" stroke="none">
<path d="M5150 10377 c-3 -3 -41 -8 -85 -11 -44 -4 -91 -9 -105 -11 -14 -2
-69 -9 -124 -15 -54 -7 -106 -13 -116 -15 -9 -2 -41 -6 -71 -10 -30 -3 -65 -8
-79 -10 -14 -3 -41 -7 -60 -10 -19 -3 -60 -10 -90 -15 -30 -5 -67 -11 -82 -14
-28 -5 -160 -31 -208 -42 -14 -3 -38 -8 -55 -11 -159 -28 -540 -134 -795 -220
-391 -132 -843 -344 -1153 -542 -287 -182 -451 -314 -697 -561 -250 -250 -360
-386 -535 -665 -91 -145 -270 -500 -330 -656 -26 -68 -51 -133 -56 -144 -28
-69 -130 -424 -143 -498 -3 -15 -7 -35 -10 -45 -3 -9 -7 -28 -10 -42 -2 -14
-15 -83 -29 -155 -36 -181 -41 -247 -41 -520 0 -234 6 -339 24 -420 5 -22 11
-55 15 -72 11 -64 77 -270 117 -363 92 -218 228 -450 359 -616 60 -74 295
-316 404 -414 237 -212 527 -411 795 -545 52 -26 97 -49 99 -51 2 -2 -42 -49
-98 -106 -128 -129 -218 -260 -327 -477 -71 -142 -167 -391 -189 -489 -2 -9
-17 -73 -33 -142 -27 -119 -28 -136 -27 -350 2 -250 6 -289 42 -440 38 -159
79 -271 155 -425 105 -209 181 -318 327 -465 69 -69 142 -139 161 -156 143
-123 524 -325 770 -409 215 -74 518 -147 708 -171 26 -3 57 -7 70 -9 13 -2 56
-7 95 -10 40 -4 83 -9 97 -11 156 -26 1216 -26 1415 0 17 2 71 7 120 11 50 3
97 8 105 10 8 2 46 7 84 10 38 3 72 8 76 10 3 2 26 6 50 10 25 4 110 20 190
36 80 16 156 32 170 34 136 26 525 121 738 180 237 67 649 201 737 240 17 8
71 29 120 48 175 68 601 273 790 382 211 121 443 283 610 426 109 94 369 358
447 454 147 183 348 533 441 770 67 169 144 457 163 605 3 30 10 82 14 115 10
77 10 696 0 761 -4 27 -11 72 -14 99 -11 77 -71 309 -111 425 -44 126 -175
397 -252 523 -97 156 -202 286 -353 437 -80 80 -163 161 -186 181 -49 44 -254
196 -307 228 l-38 23 129 132 c143 146 208 237 308 433 84 166 127 282 175
473 67 271 68 275 65 600 -1 162 -6 309 -10 325 -68 279 -99 373 -176 524 -39
79 -87 160 -101 171 -3 3 -12 16 -19 29 -7 14 -16 30 -21 35 -5 6 -45 60 -90
120 -45 60 -98 128 -118 150 -87 98 -363 366 -436 424 -44 35 -88 70 -97 77
-34 28 -255 173 -324 213 -127 74 -445 229 -574 280 -207 83 -614 204 -790
236 -14 2 -65 12 -115 21 -49 9 -97 18 -105 20 -8 2 -37 6 -65 9 -27 4 -63 9
-80 11 -90 13 -167 22 -275 30 -47 4 -101 9 -120 11 -48 6 -855 16 -860 11z"/>
</g>
</svg>
